PathFileType	4	(X/Y/Z)	./resultDataOpenSim/trcMotMarkerGrf/sub06/qtm-13-03.trc
DataRate	CameraRate	NumFrames	NumMarkers	Units	OrigDataRate	OrigDataStartFrame	OrigNumFrames
250.000000	250.000000	14	24	m	250.000000	206	547
Frame#	Time	L.Toe.Tip			R.Toe.Tip			L.Ankle.Lat			R.Ankle.Lat			L.Ankle.Med			R.Ankle.Med			L.Heel			R.Heel			L.Knee.Lat			R.Knee.Lat			L.Knee.Med			R.Knee.Med			L.Thigh.Upper			R.Thigh.Upper			L.ASIS			R.ASIS			V.Sacral			L.Acromium			R.Acromium			C7			L.Elbow			R.Elbow			L.Wrist.Lat			R.Wrist.Lat
		X1	Y1	Z1	X2	Y2	Z2	X3	Y3	Z3	X4	Y4	Z4	X5	Y5	Z5	X6	Y6	Z6	X7	Y7	Z7	X8	Y8	Z8	X9	Y9	Z9	X10	Y10	Z10	X11	Y11	Z11	X12	Y12	Z12	X13	Y13	Z13	X14	Y14	Z14	X15	Y15	Z15	X16	Y16	Z16	X17	Y17	Z17	X18	Y18	Z18	X19	Y19	Z19	X20	Y20	Z20	X21	Y21	Z21	X22	Y22	Z22	X23	Y23	Z23	X24	Y24	Z24

206	0.82	0.10051924	-0.015343219	-0.05309254	-0.34624667	0.11222313	0.11253872	-0.021936279	0.016976413	-0.080112482	-0.36093874	0.25118767	0.13125349	-0.025847364	0.031055774	0.0071496342	-0.32132882	0.23558185	0.051002201	-0.099460386	-0.009362613	-0.038135818	-0.38999051	0.29022144	0.064357891	0.061139279	0.38231134	-0.10026441	-0.018672908	0.37367362	0.19134674	0.021290606	0.38549591	0.017070701	-0.018581739	0.35557412	0.055563852	-0.055264482	0.76091388	-0.17203472	-0.12216585	0.72416485	0.16476663	-8.2848383e-05	0.80305117	-0.11295439	-0.038140545	0.78901337	0.13272227	-0.20201322	0.8673271	-0.0067620066	-0.044888564	1.2583551	-0.1944341	-0.072726334	1.2680418	0.16824966	-0.13693382	1.3103065	-0.021407568	-0.15253764	0.96621421	-0.23129437	-0.13008222	0.95081144	0.2505607	-0.10013442	0.73520189	-0.28946359	0.079943464	0.81769805	0.24369686
207	0.824	0.10041122	-0.015385624	-0.053015243	-0.32716677	0.11302597	0.11319406	-0.021996468	0.017061381	-0.080131466	-0.34414867	0.2517307	0.1319715	-0.026058467	0.031258241	0.0070644088	-0.30501878	0.23657555	0.051339712	-0.099561772	-0.0093283779	-0.038144878	-0.37490536	0.28996154	0.064984904	0.061621898	0.38247309	-0.099956139	-0.0041257223	0.37825207	0.19095767	0.0203918	0.38601454	0.01706766	-0.0038024924	0.35981095	0.054804969	-0.050440349	0.76218231	-0.17252204	-0.11538235	0.72660877	0.16494408	0.0049253168	0.80480645	-0.11344805	-0.032426358	0.79146215	0.13259132	-0.1964101	0.86972094	-0.0079514031	-0.037472697	1.2607103	-0.19424424	-0.06617674	1.2700974	0.16836753	-0.12975929	1.3124494	-0.02141104	-0.14288045	0.96720096	-0.23130972	-0.12600731	0.95332225	0.24923539	-0.086244649	0.73689316	-0.28885755	0.080400168	0.81507064	0.24454047
208	0.828	0.1003153	-0.015393098	-0.053006127	-0.3079442	0.11362814	0.11388971	-0.02214022	0.017146546	-0.08021913	-0.32772821	0.25186835	0.13252165	-0.026279834	0.031484153	0.0069535742	-0.28876695	0.23732414	0.051761414	-0.099669674	-0.0092727661	-0.038168724	-0.35989692	0.28931619	0.065599333	0.061855094	0.38275931	-0.099780351	0.01024829	0.38309146	0.19050275	0.019861482	0.38656833	0.017120521	0.010931831	0.36432327	0.054006971	-0.045655323	0.76344171	-0.17295377	-0.10851363	0.7292194	0.16529597	0.0099792383	0.80654695	-0.11396661	-0.026650203	0.79398922	0.13247143	-0.19078884	0.87214836	-0.0089601918	-0.030187172	1.2631493	-0.19405447	-0.059645046	1.2721705	0.1685103	-0.12264431	1.3145877	-0.021373317	-0.13331167	0.96826057	-0.23143814	-0.12189217	0.9559059	0.24794205	-0.072221342	0.73877627	-0.28823566	0.080647626	0.81258126	0.24546908
209	0.832	0.10024192	-0.015357212	-0.053071337	-0.28855037	0.1140633	0.11465792	-0.022316554	0.017256254	-0.080340727	-0.31177724	0.2515332	0.13285768	-0.026503855	0.031736296	0.0068147751	-0.27244096	0.2378274	0.052299327	-0.099796468	-0.0091807256	-0.038265374	-0.3449438	0.28827927	0.066187359	0.061890312	0.38313939	-0.099720237	0.024440831	0.38815649	0.18997952	0.019739523	0.38716404	0.017160129	0.025411509	0.36901299	0.053158371	-0.041029437	0.76466629	-0.17328454	-0.1016822	0.73197507	0.16578813	0.015131003	0.80827362	-0.11453	-0.020789706	0.79659485	0.13234731	-0.18513996	0.87459825	-0.009725438	-0.023004653	1.2656574	-0.19386146	-0.053118796	1.2742444	0.16867469	-0.11559014	1.3167137	-0.021299014	-0.12380438	0.96937996	-0.23171417	-0.117786	0.95854975	0.24668659	-0.058075699	0.74084389	-0.28758913	0.080762876	0.8102277	0.24642833
210	0.836	0.10018408	-0.015300961	-0.053174925	-0.26895205	0.11436498	0.11553346	-0.022472398	0.017405809	-0.080462509	-0.29616133	0.25077982	0.13305079	-0.026711007	0.03201747	0.0066478296	-0.25601507	0.23808803	0.052906102	-0.099948979	-0.0090475688	-0.038467816	-0.33001458	0.28686991	0.066731997	0.061758827	0.38356258	-0.09975468	0.038444168	0.39341635	0.18939322	0.019955012	0.38776499	0.017085877	0.039435956	0.37384411	0.052338944	-0.036607723	0.76585072	-0.1735119	-0.094973965	0.7348503	0.16637896	0.020323686	0.80997426	-0.115131	-0.014826318	0.799271	0.13219668	-0.17945313	0.87705882	-0.010197661	-0.015899206	1.2682261	-0.19365774	-0.046588093	1.2763085	0.16885292	-0.10860069	1.3188254	-0.021191905	-0.11431876	0.97055023	-0.23203214	-0.11375166	0.96123802	0.24546948	-0.043847072	0.74308723	-0.28689841	0.080772505	0.80802465	0.24737372
211	0.84	0.10013107	-0.015248531	-0.053280474	-0.249117	0.11455994	0.11654361	-0.022602581	0.017587661	-0.080583204	-0.2805508	0.24976692	0.13326006	-0.026873733	0.032325417	0.006464255	-0.23956516	0.23810914	0.053503136	-0.1000985	-0.008879322	-0.038715521	-0.31508998	0.28515335	0.067269825	0.06147764	0.38398711	-0.099864591	0.052256399	0.39884194	0.18874899	0.02032885	0.38831016	0.016888824	0.052943439	0.3788251	0.051644439	-0.03228107	0.76702288	-0.17368538	-0.088414228	0.73782582	0.16704311	0.025498175	0.8116354	-0.11575267	-0.0087522363	0.80200933	0.13199786	-0.17371964	0.87951673	-0.010379523	-0.0088658648	1.2708455	-0.19343999	-0.040045933	1.2783508	0.16903382	-0.10167139	1.320919	-0.021055933	-0.10480238	0.97175459	-0.23226039	-0.10981302	0.96395297	0.24429223	-0.029562865	0.74549967	-0.28614402	0.080670524	0.80598835	0.24829463
212	0.844	0.10007914	-0.015211086	-0.053370548	-0.22905299	0.11465627	0.11768235	-0.022743296	0.017781646	-0.080728206	-0.26467452	0.24861035	0.13360633	-0.026966219	0.032650887	0.006285879	-0.22316752	0.23789546	0.054044098	-0.10019885	-0.0086873155	-0.038900283	-0.30018628	0.28321541	0.067908091	0.061067033	0.38439344	-0.10002843	0.065882266	0.404407	0.18804695	0.020592502	0.38874559	0.016752771	0.066065954	0.38397055	0.051064255	-0.027965423	0.76821375	-0.17386863	-0.081991741	0.74088847	0.16777035	0.030666772	0.81325223	-0.11638795	-0.0025675606	0.80480473	0.13173235	-0.16793866	0.88195683	-0.01035888	-0.0019102693	1.273502	-0.19321002	-0.033486618	1.2803608	0.16920705	-0.094791051	1.3229863	-0.020894336	-0.095281096	0.97297598	-0.23238347	-0.10591731	0.96668307	0.24316173	-0.015218063	0.74807783	-0.28532332	0.080457493	0.80412437	0.24920419
213	0.848	0.10003222	-0.015190117	-0.053439134	-0.20884265	0.11464607	0.11889678	-0.022945225	0.017973628	-0.080936539	-0.24850408	0.24729264	0.13410125	-0.026987333	0.03298502	0.0061219802	-0.206833	0.23745426	0.0545081	-0.10024194	-0.008474234	-0.038992013	-0.28532265	0.28108984	0.068723999	0.060556955	0.38478289	-0.10022185	0.079331584	0.41008965	0.18728752	0.020578158	0.38902423	0.016871538	0.079136423	0.38928189	0.050411296	-0.023736526	0.76943279	-0.17409254	-0.075686007	0.74402766	0.16855643	0.035876776	0.81482381	-0.11704035	0.0037280527	0.80765147	0.13138489	-0.16212387	0.88436433	-0.010281318	0.0049641365	1.2761818	-0.19297155	-0.026903726	1.2823312	0.16936695	-0.087949216	1.3250187	-0.020710339	-0.085906654	0.97420851	-0.23254375	-0.10197747	0.9694249	0.24209147	-0.00080040743	0.7508171	-0.28445016	0.080151507	0.80243059	0.25011999
214	0.852	0.099994356	-0.015181045	-0.053486087	-0.18857382	0.11453401	0.12013709	-0.023233525	0.018168086	-0.081233223	-0.23214622	0.24576738	0.13470917	-0.026964762	0.033329989	0.0059543809	-0.19047782	0.23679347	0.054894247	-0.10025807	-0.0082280793	-0.03904758	-0.27045849	0.27870234	0.069655587	0.059981572	0.38516818	-0.10042574	0.092611877	0.41587059	0.18647732	0.020448207	0.38912813	0.017188475	0.092446218	0.39475221	0.049476214	-0.019674446	0.77067951	-0.17433667	-0.069479551	0.74723295	0.16939734	0.041107381	0.81634846	-0.11771999	0.010140883	0.81054136	0.13094495	-0.15630185	0.88672836	-0.010265949	0.011762	1.2788718	-0.19272713	-0.020289328	1.2842541	0.1695124	-0.081135845	1.3270102	-0.020508845	-0.076835387	0.97545637	-0.23290004	-0.097964586	0.97217228	0.24109175	0.013688841	0.75371314	-0.28353572	0.079775214	0.80090875	0.25105554
215	0.856	0.099962976	-0.015176532	-0.053517547	-0.16825291	0.11434288	0.12140679	-0.023570217	0.018384071	-0.081588734	-0.21567438	0.24406785	0.13540457	-0.026935379	0.033699171	0.0057574483	-0.17399029	0.23592738	0.055239012	-0.1002686	-0.0079326181	-0.039113725	-0.25545735	0.27590645	0.070538093	0.059372878	0.38556001	-0.10063018	0.10571844	0.42172973	0.1856239	0.020479884	0.38911536	0.017480201	0.10588249	0.40037486	0.04828907	-0.015702616	0.77195958	-0.17455146	-0.063359259	0.75049339	0.17028771	0.046225584	0.81782568	-0.1184436	0.01667958	0.8134621	0.13040548	-0.15049954	0.88904325	-0.010352532	0.01849335	1.2815582	-0.19247905	-0.013636841	1.2861185	0.16964395	-0.074339701	1.3289573	-0.02029593	-0.06804714	0.97671971	-0.23345392	-0.093933616	0.97491046	0.24015896	0.028235087	0.75676365	-0.28257876	0.079341264	0.79956709	0.25202481
216	0.86	0.099931931	-0.015170634	-0.053545062	-0.14784359	0.11408759	0.12273392	-0.023874	0.018637424	-0.081923432	-0.19910728	0.24225262	0.13616391	-0.026949385	0.034103556	0.0055200694	-0.15735963	0.23488025	0.055605107	-0.10027326	-0.0075799659	-0.039192655	-0.24015	0.27260139	0.071242671	0.058758846	0.38595923	-0.10082799	0.11863663	0.42764165	0.18472869	0.020692285	0.38911271	0.017623943	0.11907276	0.4061453	0.047080197	-0.011655861	0.77327359	-0.17469648	-0.057314179	0.75379761	0.17122119	0.051136149	0.81926195	-0.11922148	0.02334106	0.81639444	0.12975482	-0.14473189	0.89130659	-0.010523947	0.025167352	1.2842265	-0.1922322	-0.0069442838	1.287913	0.16976179	-0.067551283	1.3308542	-0.02007592	-0.059327072	0.97798681	-0.23406909	-0.089948022	0.97762385	0.23928224	0.042816252	0.75996274	-0.28157465	0.07886231	0.7984075	0.25304161
217	0.864	0.099894737	-0.015162227	-0.053585051	-0.12734781	0.1137685	0.12412316	-0.024090449	0.018931661	-0.082174001	-0.18246033	0.24031553	0.13695925	-0.027052878	0.034537855	0.0052532144	-0.14067511	0.23366602	0.056046254	-0.1002682	-0.0071737854	-0.039273464	-0.22449896	0.26883552	0.071785407	0.058160128	0.38635872	-0.1010106	0.13135709	0.43357169	0.1837904	0.020901171	0.38922893	0.017656906	0.13182614	0.41205671	0.046008432	-0.0074219499	0.77459091	-0.17476562	-0.05133371	0.75713411	0.17219112	0.055947998	0.82067326	-0.12003671	0.030103381	0.81931412	0.12897106	-0.13900058	0.89351664	-0.010751786	0.031790381	1.2868632	-0.19199121	-0.0002102132	1.2896299	0.169865	-0.060766118	1.3326929	-0.019847707	-0.05041866	0.97924747	-0.23464121	-0.086006833	0.98030056	0.23845597	0.057411297	0.76329984	-0.28052077	0.078373833	0.79741497	0.2541075
218	0.868	0.099844474	-0.015155343	-0.053654812	-0.10679095	0.11339024	0.12556576	-0.024225836	0.019265416	-0.082342079	-0.16575127	0.23820598	0.1377779	-0.027243842	0.034978946	0.004985934	-0.1240044	0.23227291	0.056587575	-0.10025232	-0.0067217058	-0.039348188	-0.20864744	0.26478271	0.072321785	0.05757827	0.38674849	-0.10117274	0.14388479	0.43948117	0.18280743	0.020997032	0.38948084	0.017684913	0.14417779	0.41809291	0.045079958	-0.0029653558	0.77584722	-0.17478779	-0.045406939	0.76049141	0.17319089	0.060847044	0.82207174	-0.12085364	0.036944283	0.82219782	0.12803472	-0.13330024	0.89567119	-0.01101731	0.038370265	1.2894562	-0.19175481	0.0065699309	1.2912633	0.16995213	-0.053984227	1.3344684	-0.019605467	-0.041171353	0.98050673	-0.23518136	-0.082063301	0.98293133	0.23767941	0.072005001	0.76676641	-0.27941562	0.077924964	0.79656614	0.25521209
219	0.872	0.099782706	-0.015152723	-0.053760048	-0.086167725	0.11296968	0.12706728	-0.024313337	0.019638675	-0.082467597	-0.14897489	0.23589415	0.13862703	-0.027497367	0.035402373	0.0047299235	-0.10735332	0.23068752	0.057224141	-0.10022217	-0.0062247267	-0.039405891	-0.19273937	0.26059357	0.073017675	0.05698309	0.38711983	-0.10131267	0.15623062	0.44534547	0.18177103	0.021011325	0.38982941	0.017800438	0.15618591	0.42422964	0.04425919	0.0017489357	0.77698288	-0.17478194	-0.039522659	0.76385806	0.17421398	0.065873406	0.82345376	-0.12164751	0.043868608	0.8250278	0.12695635	-0.12762419	0.89776752	-0.011311121	0.044920949	1.2919944	-0.1915156	0.01339783	1.2928055	0.17002339	-0.047206153	1.3361805	-0.019347557	-0.031579617	0.98177605	-0.23575236	-0.078092431	0.98551079	0.23695062	0.086580517	0.77035779	-0.27826366	0.077532029	0.79584825	0.2563513
